<svg xmlns="http://www.w3.org/2000/svg" xmlns:xlink="http://www.w3.org/1999/xlink" width="180" zoomAndPan="magnify" viewBox="0 0 135 56.999997" height="76" preserveAspectRatio="xMidYMid meet" version="1.0"><defs><clipPath id="5ea94c1a8c"><path d="M 87.007812 9.828125 L 126.480469 9.828125 L 126.480469 49.300781 L 87.007812 49.300781 Z M 87.007812 9.828125 " clip-rule="nonzero"/></clipPath><clipPath id="2d585b042f"><path d="M 106.742188 9.828125 C 95.84375 9.828125 87.007812 18.664062 87.007812 29.566406 C 87.007812 40.464844 95.84375 49.300781 106.742188 49.300781 C 117.644531 49.300781 126.480469 40.464844 126.480469 29.566406 C 126.480469 18.664062 117.644531 9.828125 106.742188 9.828125 Z M 106.742188 9.828125 " clip-rule="nonzero"/></clipPath><clipPath id="c8f1dc73ad"><path d="M 0.0078125 0.828125 L 39.480469 0.828125 L 39.480469 40.300781 L 0.0078125 40.300781 Z M 0.0078125 0.828125 " clip-rule="nonzero"/></clipPath><clipPath id="c201eb36ab"><path d="M 19.742188 0.828125 C 8.84375 0.828125 0.0078125 9.664062 0.0078125 20.566406 C 0.0078125 31.464844 8.84375 40.300781 19.742188 40.300781 C 30.644531 40.300781 39.480469 31.464844 39.480469 20.566406 C 39.480469 9.664062 30.644531 0.828125 19.742188 0.828125 Z M 19.742188 0.828125 " clip-rule="nonzero"/></clipPath><clipPath id="37fc75762d"><rect x="0" width="40" y="0" height="41"/></clipPath><clipPath id="9ec1147442"><path d="M 92 18.164062 L 121.234375 18.164062 L 121.234375 40.664062 L 92 40.664062 Z M 92 18.164062 " clip-rule="nonzero"/></clipPath></defs><rect x="-13.5" width="162" fill="#ffffff" y="-5.7" height="68.399996" fill-opacity="1"/><rect x="-13.5" width="162" fill="#22c55e" y="-5.7" height="68.399996" fill-opacity="1"/><g clip-path="url(#5ea94c1a8c)"><g clip-path="url(#2d585b042f)"><g transform="matrix(1, 0, 0, 1, 87, 9)"><g clip-path="url(#37fc75762d)"><g clip-path="url(#c8f1dc73ad)"><g clip-path="url(#c201eb36ab)"><path fill="#078c38" d="M 0.0078125 0.828125 L 39.480469 0.828125 L 39.480469 40.300781 L 0.0078125 40.300781 Z M 0.0078125 0.828125 " fill-opacity="1" fill-rule="nonzero"/></g></g></g></g></g></g><g clip-path="url(#9ec1147442)"><path fill="#ffffff" d="M 120.355469 19.238281 L 120.355469 19.234375 C 119.289062 18.167969 117.558594 18.167969 116.492188 19.234375 L 101.648438 34.078125 L 96.96875 29.398438 C 95.902344 28.332031 94.171875 28.332031 93.105469 29.398438 C 92.039062 30.464844 92.039062 32.195312 93.105469 33.261719 L 99.734375 39.890625 C 100.800781 40.957031 102.53125 40.957031 103.597656 39.886719 L 120.359375 23.097656 C 121.425781 22.03125 121.421875 20.304688 120.355469 19.238281 " fill-opacity="1" fill-rule="nonzero"/></g></svg>