<svg xmlns="http://www.w3.org/2000/svg" xmlns:xlink="http://www.w3.org/1999/xlink" width="180" zoomAndPan="magnify" viewBox="0 0 135 56.999997" height="76" preserveAspectRatio="xMidYMid meet" version="1.0"><defs><g/><clipPath id="3402500fa9"><path d="M 93 4 L 135 4 L 135 53 L 93 53 Z M 93 4 " clip-rule="nonzero"/></clipPath><clipPath id="2cf5136cad"><path d="M 104.675781 -1.414062 L 145.582031 22.40625 L 124.628906 58.394531 L 83.71875 34.574219 Z M 104.675781 -1.414062 " clip-rule="nonzero"/></clipPath><clipPath id="f3c853337e"><path d="M 135.511719 18.046875 L 135.441406 39.050781 C 135.4375 39.976562 134.9375 40.832031 134.132812 41.292969 L 115.902344 51.722656 C 115.097656 52.183594 114.105469 52.179688 113.304688 51.714844 L 95.148438 41.140625 C 94.347656 40.675781 93.855469 39.816406 93.855469 38.886719 L 93.929688 17.882812 C 93.933594 16.957031 94.433594 16.101562 95.238281 15.640625 L 113.46875 5.210938 C 114.273438 4.75 115.261719 4.75 116.066406 5.21875 L 134.222656 15.792969 C 135.023438 16.257812 135.515625 17.117188 135.511719 18.046875 Z M 135.511719 18.046875 " clip-rule="nonzero"/></clipPath><clipPath id="223827379c"><path d="M 0.839844 0.558594 L 42 0.558594 L 42 48.320312 L 0.839844 48.320312 Z M 0.839844 0.558594 " clip-rule="nonzero"/></clipPath><clipPath id="e4019b5329"><path d="M 11.675781 -5.414062 L 52.582031 18.40625 L 31.628906 54.394531 L -9.28125 30.574219 Z M 11.675781 -5.414062 " clip-rule="nonzero"/></clipPath><clipPath id="ae45627e23"><path d="M 42.511719 14.046875 L 42.441406 35.050781 C 42.4375 35.976562 41.9375 36.832031 41.132812 37.292969 L 22.902344 47.722656 C 22.097656 48.183594 21.105469 48.179688 20.304688 47.714844 L 2.148438 37.140625 C 1.347656 36.675781 0.855469 35.816406 0.855469 34.886719 L 0.929688 13.882812 C 0.933594 12.957031 1.433594 12.101562 2.238281 11.640625 L 20.46875 1.210938 C 21.273438 0.75 22.261719 0.75 23.066406 1.21875 L 41.222656 11.792969 C 42.023438 12.257812 42.515625 13.117188 42.511719 14.046875 Z M 42.511719 14.046875 " clip-rule="nonzero"/></clipPath><clipPath id="123a9b1cfe"><rect x="0" width="42" y="0" height="49"/></clipPath><clipPath id="4f488dadf8"><path d="M 112.152344 15 L 117 15 L 117 36 L 112.152344 36 Z M 112.152344 15 " clip-rule="nonzero"/></clipPath><clipPath id="e124940095"><path d="M 112.152344 37 L 117 37 L 117 42.351562 L 112.152344 42.351562 Z M 112.152344 37 " clip-rule="nonzero"/></clipPath><clipPath id="84935538ea"><rect x="0" width="3" y="0" height="11"/></clipPath><clipPath id="dae0394f11"><path d="M 60.191406 34.15625 L 63.949219 34.15625 L 63.949219 37.910156 L 60.191406 37.910156 Z M 60.191406 34.15625 " clip-rule="nonzero"/></clipPath><clipPath id="fcefa3b245"><path d="M 62.070312 34.15625 C 61.035156 34.15625 60.191406 34.996094 60.191406 36.035156 C 60.191406 37.070312 61.035156 37.910156 62.070312 37.910156 C 63.109375 37.910156 63.949219 37.070312 63.949219 36.035156 C 63.949219 34.996094 63.109375 34.15625 62.070312 34.15625 Z M 62.070312 34.15625 " clip-rule="nonzero"/></clipPath><clipPath id="79c02f3827"><path d="M 0.191406 0.15625 L 3.949219 0.15625 L 3.949219 3.910156 L 0.191406 3.910156 Z M 0.191406 0.15625 " clip-rule="nonzero"/></clipPath><clipPath id="463682f348"><path d="M 2.070312 0.15625 C 1.035156 0.15625 0.191406 0.996094 0.191406 2.035156 C 0.191406 3.070312 1.035156 3.910156 2.070312 3.910156 C 3.109375 3.910156 3.949219 3.070312 3.949219 2.035156 C 3.949219 0.996094 3.109375 0.15625 2.070312 0.15625 Z M 2.070312 0.15625 " clip-rule="nonzero"/></clipPath><clipPath id="099a8a8b33"><rect x="0" width="4" y="0" height="4"/></clipPath><clipPath id="17195923fb"><path d="M 60.191406 39.585938 L 63.949219 39.585938 L 63.949219 43.339844 L 60.191406 43.339844 Z M 60.191406 39.585938 " clip-rule="nonzero"/></clipPath><clipPath id="9bcd69e409"><path d="M 62.070312 39.585938 C 61.035156 39.585938 60.191406 40.425781 60.191406 41.464844 C 60.191406 42.5 61.035156 43.339844 62.070312 43.339844 C 63.109375 43.339844 63.949219 42.5 63.949219 41.464844 C 63.949219 40.425781 63.109375 39.585938 62.070312 39.585938 Z M 62.070312 39.585938 " clip-rule="nonzero"/></clipPath><clipPath id="7c24b628ec"><path d="M 0.191406 0.585938 L 3.949219 0.585938 L 3.949219 4.339844 L 0.191406 4.339844 Z M 0.191406 0.585938 " clip-rule="nonzero"/></clipPath><clipPath id="96751856e1"><path d="M 2.070312 0.585938 C 1.035156 0.585938 0.191406 1.425781 0.191406 2.464844 C 0.191406 3.5 1.035156 4.339844 2.070312 4.339844 C 3.109375 4.339844 3.949219 3.5 3.949219 2.464844 C 3.949219 1.425781 3.109375 0.585938 2.070312 0.585938 Z M 2.070312 0.585938 " clip-rule="nonzero"/></clipPath><clipPath id="4bcec56669"><rect x="0" width="4" y="0" height="5"/></clipPath><clipPath id="4f92068550"><path d="M 65.371094 40.773438 L 69.125 40.773438 L 69.125 44.53125 L 65.371094 44.53125 Z M 65.371094 40.773438 " clip-rule="nonzero"/></clipPath><clipPath id="3c3e0e9b07"><path d="M 67.246094 40.773438 C 66.210938 40.773438 65.371094 41.617188 65.371094 42.652344 C 65.371094 43.691406 66.210938 44.53125 67.246094 44.53125 C 68.285156 44.53125 69.125 43.691406 69.125 42.652344 C 69.125 41.617188 68.285156 40.773438 67.246094 40.773438 Z M 67.246094 40.773438 " clip-rule="nonzero"/></clipPath><clipPath id="d13e8f5609"><path d="M 0.371094 0.773438 L 4.125 0.773438 L 4.125 4.53125 L 0.371094 4.53125 Z M 0.371094 0.773438 " clip-rule="nonzero"/></clipPath><clipPath id="7b01cc1cc8"><path d="M 2.246094 0.773438 C 1.210938 0.773438 0.371094 1.617188 0.371094 2.652344 C 0.371094 3.691406 1.210938 4.53125 2.246094 4.53125 C 3.285156 4.53125 4.125 3.691406 4.125 2.652344 C 4.125 1.617188 3.285156 0.773438 2.246094 0.773438 Z M 2.246094 0.773438 " clip-rule="nonzero"/></clipPath><clipPath id="28b4305f53"><rect x="0" width="5" y="0" height="5"/></clipPath></defs><rect x="-13.5" width="162" fill="#ffffff" y="-5.7" height="68.399996" fill-opacity="1"/><rect x="-13.5" width="162" fill="#fe6868" y="-5.7" height="68.399996" fill-opacity="1"/><g clip-path="url(#3402500fa9)"><g clip-path="url(#2cf5136cad)"><g clip-path="url(#f3c853337e)"><g transform="matrix(1, 0, 0, 1, 93, 4)"><g clip-path="url(#123a9b1cfe)"><g clip-path="url(#223827379c)"><g clip-path="url(#e4019b5329)"><g clip-path="url(#ae45627e23)"><path fill="#ef4444" d="M 11.394531 -5.578125 L 52.863281 18.570312 L 31.910156 54.558594 L -9.5625 30.410156 Z M 11.394531 -5.578125 " fill-opacity="1" fill-rule="nonzero"/></g></g></g></g></g></g></g></g><g clip-path="url(#4f488dadf8)"><path fill="#fafafa" d="M 114.394531 35.144531 C 114.355469 35.136719 114.324219 34.835938 114.320312 34.808594 C 114.261719 34.503906 114.195312 34.199219 114.128906 33.894531 C 113.851562 32.578125 113.617188 31.257812 113.433594 29.925781 C 113.078125 27.339844 112.765625 24.75 112.554688 22.148438 C 112.4375 20.691406 112.171875 19.070312 112.542969 17.632812 C 112.828125 16.53125 114.261719 14.601562 115.527344 15.78125 C 115.699219 15.941406 115.832031 16.144531 115.9375 16.347656 C 116.816406 18.007812 116.585938 20.28125 116.519531 22.085938 C 116.445312 23.9375 116.292969 25.789062 116.136719 27.636719 C 115.90625 30.300781 115.605469 32.917969 115.234375 35.566406 " fill-opacity="1" fill-rule="evenodd"/></g><g clip-path="url(#e124940095)"><path fill="#fafafa" d="M 114.816406 37.558594 C 114.492188 37.160156 113.550781 38.148438 113.433594 38.316406 C 112.644531 39.441406 112.398438 41.675781 114.121094 42.070312 C 115.5625 42.402344 117.160156 41.078125 116.949219 39.578125 C 116.835938 38.785156 116.246094 38.175781 115.675781 37.664062 " fill-opacity="1" fill-rule="evenodd"/></g><g transform="matrix(1, 0, 0, 1, 3, 46)"><g clip-path="url(#84935538ea)"><g fill="#ef4444" fill-opacity="1"><g transform="translate(0.843424, 7.546614)"><g><path d="M 0.921875 -4.453125 C 0.804688 -4.453125 0.710938 -4.488281 0.640625 -4.5625 C 0.566406 -4.632812 0.53125 -4.726562 0.53125 -4.84375 C 0.53125 -4.957031 0.566406 -5.050781 0.640625 -5.125 C 0.710938 -5.195312 0.804688 -5.234375 0.921875 -5.234375 C 1.046875 -5.234375 1.144531 -5.195312 1.21875 -5.125 C 1.289062 -5.050781 1.328125 -4.957031 1.328125 -4.84375 C 1.328125 -4.726562 1.289062 -4.632812 1.21875 -4.5625 C 1.144531 -4.488281 1.046875 -4.453125 0.921875 -4.453125 Z M 0.65625 0 L 0.65625 -3.734375 L 1.203125 -3.734375 L 1.203125 0 Z M 0.65625 0 "/></g></g></g></g></g><g clip-path="url(#dae0394f11)"><g clip-path="url(#fcefa3b245)"><g transform="matrix(1, 0, 0, 1, 60, 34)"><g clip-path="url(#099a8a8b33)"><g clip-path="url(#79c02f3827)"><g clip-path="url(#463682f348)"><path fill="#fc8484" d="M 0.191406 0.15625 L 3.949219 0.15625 L 3.949219 3.910156 L 0.191406 3.910156 Z M 0.191406 0.15625 " fill-opacity="1" fill-rule="nonzero"/></g></g></g></g></g></g><g clip-path="url(#17195923fb)"><g clip-path="url(#9bcd69e409)"><g transform="matrix(1, 0, 0, 1, 60, 39)"><g clip-path="url(#4bcec56669)"><g clip-path="url(#7c24b628ec)"><g clip-path="url(#96751856e1)"><path fill="#fc8484" d="M 0.191406 0.585938 L 3.949219 0.585938 L 3.949219 4.339844 L 0.191406 4.339844 Z M 0.191406 0.585938 " fill-opacity="1" fill-rule="nonzero"/></g></g></g></g></g></g><g clip-path="url(#4f92068550)"><g clip-path="url(#3c3e0e9b07)"><g transform="matrix(1, 0, 0, 1, 65, 40)"><g clip-path="url(#28b4305f53)"><g clip-path="url(#d13e8f5609)"><g clip-path="url(#7b01cc1cc8)"><path fill="#fc8484" d="M 0.371094 0.773438 L 4.125 0.773438 L 4.125 4.53125 L 0.371094 4.53125 Z M 0.371094 0.773438 " fill-opacity="1" fill-rule="nonzero"/></g></g></g></g></g></g></svg>