<svg xmlns="http://www.w3.org/2000/svg" xmlns:xlink="http://www.w3.org/1999/xlink" width="180" zoomAndPan="magnify" viewBox="0 0 135 56.999997" height="76" preserveAspectRatio="xMidYMid meet" version="1.0"><defs><filter x="0%" y="0%" width="100%" height="100%" id="7954805e9a"><feColorMatrix values="0 0 0 0 1 0 0 0 0 1 0 0 0 0 1 0 0 0 1 0" color-interpolation-filters="sRGB"/></filter><g/><clipPath id="ae5a5f4c8a"><path d="M 93.199219 9.5 L 135 9.5 L 135 51.5 L 93.199219 51.5 Z M 93.199219 9.5 " clip-rule="nonzero"/></clipPath><clipPath id="90a52def3d"><path d="M 56 26 L 77 26 L 77 39 L 56 39 Z M 56 26 " clip-rule="nonzero"/></clipPath><clipPath id="7bc721d709"><path d="M 76.617188 21.214844 L 75.988281 45.207031 L 51.996094 44.574219 L 52.628906 20.582031 Z M 76.617188 21.214844 " clip-rule="nonzero"/></clipPath><clipPath id="ed1fb326b1"><path d="M 76.617188 21.214844 L 75.988281 45.207031 L 51.996094 44.574219 L 52.628906 20.582031 Z M 76.617188 21.214844 " clip-rule="nonzero"/></clipPath><clipPath id="f685cbfc19"><path d="M 52 21 L 64 21 L 64 33 L 52 33 Z M 52 21 " clip-rule="nonzero"/></clipPath><clipPath id="23ba6bc3ce"><path d="M 76.617188 21.214844 L 75.988281 45.207031 L 51.996094 44.574219 L 52.628906 20.582031 Z M 76.617188 21.214844 " clip-rule="nonzero"/></clipPath><clipPath id="ddec26ed13"><path d="M 76.617188 21.214844 L 75.988281 45.207031 L 51.996094 44.574219 L 52.628906 20.582031 Z M 76.617188 21.214844 " clip-rule="nonzero"/></clipPath><clipPath id="fdd8be5bd7"><path d="M 58 40 L 73 40 L 73 45 L 58 45 Z M 58 40 " clip-rule="nonzero"/></clipPath><clipPath id="8173c0c3ff"><path d="M 76.617188 21.214844 L 75.988281 45.207031 L 51.996094 44.574219 L 52.628906 20.582031 Z M 76.617188 21.214844 " clip-rule="nonzero"/></clipPath><clipPath id="df719cada7"><path d="M 76.617188 21.214844 L 75.988281 45.207031 L 51.996094 44.574219 L 52.628906 20.582031 Z M 76.617188 21.214844 " clip-rule="nonzero"/></clipPath><clipPath id="ba82a7bc06"><path d="M 55 25 L 76 25 L 76 38 L 55 38 Z M 55 25 " clip-rule="nonzero"/></clipPath><clipPath id="9d9325cbdc"><path d="M 76.617188 21.214844 L 75.988281 45.207031 L 51.996094 44.574219 L 52.628906 20.582031 Z M 76.617188 21.214844 " clip-rule="nonzero"/></clipPath><clipPath id="5501aefafa"><path d="M 76.617188 21.214844 L 75.988281 45.207031 L 51.996094 44.574219 L 52.628906 20.582031 Z M 76.617188 21.214844 " clip-rule="nonzero"/></clipPath><clipPath id="2137c34ea0"><path d="M 52 20 L 63 20 L 63 33 L 52 33 Z M 52 20 " clip-rule="nonzero"/></clipPath><clipPath id="1854adb483"><path d="M 76.617188 21.214844 L 75.988281 45.207031 L 51.996094 44.574219 L 52.628906 20.582031 Z M 76.617188 21.214844 " clip-rule="nonzero"/></clipPath><clipPath id="fe2059a76c"><path d="M 76.617188 21.214844 L 75.988281 45.207031 L 51.996094 44.574219 L 52.628906 20.582031 Z M 76.617188 21.214844 " clip-rule="nonzero"/></clipPath><clipPath id="d8331295f0"><path d="M 57 39 L 73 39 L 73 45 L 57 45 Z M 57 39 " clip-rule="nonzero"/></clipPath><clipPath id="4db98f167a"><path d="M 76.617188 21.214844 L 75.988281 45.207031 L 51.996094 44.574219 L 52.628906 20.582031 Z M 76.617188 21.214844 " clip-rule="nonzero"/></clipPath><clipPath id="3927db59df"><path d="M 76.617188 21.214844 L 75.988281 45.207031 L 51.996094 44.574219 L 52.628906 20.582031 Z M 76.617188 21.214844 " clip-rule="nonzero"/></clipPath><clipPath id="5eeb656014"><path d="M 55 9 L 67 9 L 67 23 L 55 23 Z M 55 9 " clip-rule="nonzero"/></clipPath><clipPath id="26c1813ae1"><path d="M 60.773438 -0.222656 L 76.511719 21.714844 L 61.277344 32.644531 L 45.539062 10.707031 Z M 60.773438 -0.222656 " clip-rule="nonzero"/></clipPath><clipPath id="673e4a007b"><path d="M 60.773438 -0.222656 L 76.511719 21.714844 L 61.277344 32.644531 L 45.539062 10.707031 Z M 60.773438 -0.222656 " clip-rule="nonzero"/></clipPath><clipPath id="711833ef29"><path d="M 64 12 L 77 12 L 77 25 L 64 25 Z M 64 12 " clip-rule="nonzero"/></clipPath><clipPath id="8a0ffb97b0"><path d="M 60.773438 -0.222656 L 76.511719 21.714844 L 61.277344 32.644531 L 45.539062 10.707031 Z M 60.773438 -0.222656 " clip-rule="nonzero"/></clipPath><clipPath id="0f597b843b"><path d="M 60.773438 -0.222656 L 76.511719 21.714844 L 61.277344 32.644531 L 45.539062 10.707031 Z M 60.773438 -0.222656 " clip-rule="nonzero"/></clipPath><clipPath id="7a96bad3b5"><path d="M 46 7 L 58 7 L 58 21 L 46 21 Z M 46 7 " clip-rule="nonzero"/></clipPath><clipPath id="97f77f8ca7"><path d="M 60.773438 -0.222656 L 76.511719 21.714844 L 61.277344 32.644531 L 45.539062 10.707031 Z M 60.773438 -0.222656 " clip-rule="nonzero"/></clipPath><clipPath id="705d7b30fe"><path d="M 60.773438 -0.222656 L 76.511719 21.714844 L 61.277344 32.644531 L 45.539062 10.707031 Z M 60.773438 -0.222656 " clip-rule="nonzero"/></clipPath><clipPath id="e75479e6ae"><path d="M 0 0.8125 L 23.25 0.8125 L 23.25 11 L 0 11 Z M 0 0.8125 " clip-rule="nonzero"/></clipPath><clipPath id="a7fa8f1801"><path d="M 0 0.8125 L 17 0.8125 L 17 28.5625 L 0 28.5625 Z M 0 0.8125 " clip-rule="nonzero"/></clipPath><clipPath id="61a87a6c67"><path d="M 0 10 L 17 10 L 17 28.5625 L 0 28.5625 Z M 0 10 " clip-rule="nonzero"/></clipPath><mask id="31601213ce"><g filter="url(#7954805e9a)"><rect x="-13.5" width="162" fill="#000000" y="-5.7" height="68.399996" fill-opacity="0.12"/></g></mask><clipPath id="dec7a41d05"><path d="M 0 0.320312 L 16.320312 0.320312 L 16.320312 18.5625 L 0 18.5625 Z M 0 0.320312 " clip-rule="nonzero"/></clipPath><clipPath id="9cee092e97"><rect x="0" width="17" y="0" height="19"/></clipPath><clipPath id="9d9af70829"><rect x="0" width="3" y="0" height="10"/></clipPath></defs><rect x="-13.5" width="162" fill="#ffffff" y="-5.7" height="68.399996" fill-opacity="1"/><rect x="-13.5" width="162" fill="#f59e0b" y="-5.7" height="68.399996" fill-opacity="1"/><g clip-path="url(#ae5a5f4c8a)"><path fill="#fadf71" d="M 114.09375 9.5 C 102.574219 9.5 93.199219 18.875 93.199219 30.394531 C 93.199219 41.914062 102.574219 51.289062 114.09375 51.289062 C 125.617188 51.289062 134.988281 41.914062 134.988281 30.394531 C 134.988281 18.875 125.617188 9.5 114.09375 9.5 Z M 114.09375 48.574219 C 104.070312 48.574219 95.917969 40.417969 95.917969 30.394531 C 95.917969 20.371094 104.070312 12.214844 114.09375 12.214844 C 124.121094 12.214844 132.273438 20.371094 132.273438 30.394531 C 132.273438 40.417969 124.121094 48.574219 114.09375 48.574219 Z M 114.09375 14.996094 C 105.605469 14.996094 98.695312 21.902344 98.695312 30.394531 C 98.695312 38.886719 105.605469 45.792969 114.09375 45.792969 C 122.582031 45.792969 129.492188 38.882812 129.492188 30.394531 C 129.492188 21.90625 122.582031 14.996094 114.09375 14.996094 Z M 121.851562 33.992188 L 113.253906 33.992188 C 112.484375 33.992188 111.863281 33.375 111.863281 32.605469 L 111.863281 22.804688 C 111.863281 22.035156 112.488281 21.417969 113.253906 21.417969 C 114.023438 21.417969 114.640625 22.035156 114.640625 22.804688 L 114.640625 31.21875 L 121.847656 31.21875 C 122.617188 31.21875 123.234375 31.835938 123.234375 32.605469 C 123.234375 33.375 122.617188 33.992188 121.851562 33.992188 Z M 121.851562 33.992188 " fill-opacity="1" fill-rule="nonzero"/></g><g clip-path="url(#90a52def3d)"><g clip-path="url(#7bc721d709)"><g clip-path="url(#ed1fb326b1)"><path fill="#f7941d" d="M 72.527344 26.511719 L 56.34375 35.515625 L 57.6875 38.351562 L 76.316406 32.671875 Z M 72.527344 26.511719 " fill-opacity="1" fill-rule="nonzero"/></g></g></g><g clip-path="url(#f685cbfc19)"><g clip-path="url(#23ba6bc3ce)"><g clip-path="url(#ddec26ed13)"><path fill="#f7941d" d="M 60.640625 21.695312 C 60.824219 21.667969 63.417969 25.433594 63.417969 25.433594 L 54.734375 32.953125 L 52.878906 31.304688 Z M 60.640625 21.695312 " fill-opacity="1" fill-rule="nonzero"/></g></g></g><g clip-path="url(#fdd8be5bd7)"><g clip-path="url(#8173c0c3ff)"><g clip-path="url(#df719cada7)"><path fill="#f7941d" d="M 72.226562 40.300781 C 72.363281 40.929688 72.503906 44.933594 72.503906 44.933594 L 58.238281 43.128906 L 58.160156 40.589844 Z M 72.226562 40.300781 " fill-opacity="1" fill-rule="nonzero"/></g></g></g><g clip-path="url(#ba82a7bc06)"><g clip-path="url(#9d9325cbdc)"><g clip-path="url(#5501aefafa)"><path fill="#f5a51f" d="M 72.109375 25.632812 L 55.925781 34.636719 L 57.269531 37.472656 L 75.898438 31.792969 Z M 72.109375 25.632812 " fill-opacity="1" fill-rule="nonzero"/></g></g></g><g clip-path="url(#2137c34ea0)"><g clip-path="url(#1854adb483)"><g clip-path="url(#fe2059a76c)"><path fill="#f5a51f" d="M 60.222656 20.816406 C 60.40625 20.789062 63 24.554688 63 24.554688 L 54.316406 32.074219 L 52.460938 30.425781 Z M 60.222656 20.816406 " fill-opacity="1" fill-rule="nonzero"/></g></g></g><g clip-path="url(#d8331295f0)"><g clip-path="url(#4db98f167a)"><g clip-path="url(#3927db59df)"><path fill="#f5a51f" d="M 71.808594 39.421875 C 71.945312 40.050781 72.085938 44.054688 72.085938 44.054688 L 57.820312 42.25 L 57.738281 39.710938 Z M 71.808594 39.421875 " fill-opacity="1" fill-rule="nonzero"/></g></g></g><g clip-path="url(#5eeb656014)"><g clip-path="url(#26c1813ae1)"><g clip-path="url(#673e4a007b)"><path fill="#f5a51e" d="M 60.679688 10.378906 L 66.535156 18.546875 C 66.640625 18.695312 66.714844 18.855469 66.757812 19.035156 C 66.796875 19.210938 66.804688 19.386719 66.773438 19.566406 C 66.746094 19.746094 66.683594 19.914062 66.585938 20.066406 C 66.492188 20.222656 66.371094 20.351562 66.222656 20.457031 L 63.351562 22.515625 C 63.203125 22.621094 63.042969 22.695312 62.867188 22.738281 C 62.6875 22.777344 62.511719 22.785156 62.332031 22.753906 C 62.152344 22.726562 61.984375 22.664062 61.832031 22.566406 C 61.675781 22.472656 61.546875 22.351562 61.441406 22.203125 L 55.582031 14.035156 C 55.476562 13.886719 55.402344 13.726562 55.363281 13.550781 C 55.320312 13.371094 55.316406 13.195312 55.34375 13.015625 C 55.375 12.835938 55.4375 12.667969 55.53125 12.515625 C 55.628906 12.359375 55.75 12.230469 55.898438 12.125 L 58.765625 10.066406 C 58.914062 9.960938 59.078125 9.886719 59.253906 9.84375 C 59.429688 9.804688 59.609375 9.796875 59.789062 9.828125 C 59.96875 9.855469 60.132812 9.917969 60.289062 10.015625 C 60.441406 10.113281 60.574219 10.234375 60.679688 10.378906 Z M 60.679688 10.378906 " fill-opacity="1" fill-rule="nonzero"/></g></g></g><g clip-path="url(#711833ef29)"><g clip-path="url(#8a0ffb97b0)"><g clip-path="url(#0f597b843b)"><path fill="#ee9f1b" d="M 69.953125 12.570312 L 75.8125 20.738281 C 75.917969 20.886719 75.992188 21.046875 76.035156 21.222656 C 76.074219 21.402344 76.082031 21.578125 76.050781 21.757812 C 76.023438 21.9375 75.957031 22.105469 75.863281 22.257812 C 75.765625 22.414062 75.644531 22.542969 75.5 22.648438 L 72.628906 24.707031 C 72.480469 24.8125 72.316406 24.886719 72.140625 24.929688 C 71.964844 24.96875 71.785156 24.976562 71.605469 24.945312 C 71.429688 24.917969 71.261719 24.855469 71.105469 24.757812 C 70.953125 24.664062 70.824219 24.539062 70.71875 24.394531 L 64.859375 16.226562 C 64.753906 16.078125 64.679688 15.917969 64.636719 15.742188 C 64.597656 15.5625 64.589844 15.386719 64.621094 15.207031 C 64.648438 15.027344 64.710938 14.859375 64.808594 14.707031 C 64.902344 14.550781 65.027344 14.421875 65.171875 14.316406 L 68.042969 12.257812 C 68.191406 12.152344 68.351562 12.078125 68.53125 12.035156 C 68.707031 11.996094 68.886719 11.988281 69.0625 12.019531 C 69.242188 12.046875 69.410156 12.109375 69.5625 12.207031 C 69.71875 12.300781 69.847656 12.425781 69.953125 12.570312 Z M 69.953125 12.570312 " fill-opacity="1" fill-rule="nonzero"/></g></g></g><g clip-path="url(#7a96bad3b5)"><g clip-path="url(#97f77f8ca7)"><g clip-path="url(#705d7b30fe)"><path fill="#ee9f1b" d="M 52.164062 20.019531 L 46.304688 11.855469 C 46.199219 11.707031 46.125 11.542969 46.085938 11.367188 C 46.042969 11.191406 46.039062 11.011719 46.066406 10.832031 C 46.097656 10.652344 46.160156 10.488281 46.253906 10.332031 C 46.351562 10.179688 46.472656 10.046875 46.621094 9.941406 L 49.488281 7.882812 C 49.636719 7.777344 49.800781 7.703125 49.976562 7.664062 C 50.152344 7.621094 50.332031 7.617188 50.511719 7.644531 C 50.691406 7.675781 50.855469 7.738281 51.011719 7.832031 C 51.164062 7.929688 51.292969 8.050781 51.402344 8.199219 L 57.257812 16.363281 C 57.363281 16.511719 57.4375 16.675781 57.480469 16.851562 C 57.519531 17.027344 57.527344 17.207031 57.496094 17.386719 C 57.46875 17.5625 57.40625 17.730469 57.308594 17.886719 C 57.214844 18.039062 57.09375 18.167969 56.945312 18.273438 L 54.074219 20.335938 C 53.925781 20.441406 53.765625 20.511719 53.585938 20.554688 C 53.410156 20.597656 53.234375 20.601562 53.054688 20.574219 C 52.875 20.542969 52.707031 20.480469 52.554688 20.386719 C 52.398438 20.289062 52.269531 20.167969 52.164062 20.019531 Z M 52.164062 20.019531 " fill-opacity="1" fill-rule="nonzero"/></g></g></g><g clip-path="url(#e75479e6ae)"><path fill="#fa9c39" d="M 9.375 10.410156 L 23.019531 0.8125 L 0.0507812 0.8125 Z M 9.375 10.410156 " fill-opacity="1" fill-rule="nonzero"/></g><g clip-path="url(#a7fa8f1801)"><path fill="#f3a106" d="M 16.027344 17.257812 L 0.0507812 28.5 L 0.0507812 0.8125 Z M 16.027344 17.257812 " fill-opacity="1" fill-rule="nonzero"/></g><g clip-path="url(#61a87a6c67)"><g mask="url(#31601213ce)"><g transform="matrix(1, 0, 0, 1, 0, 10)"><g clip-path="url(#9cee092e97)"><g clip-path="url(#dec7a41d05)"><path fill="#ffffff" d="M 16.027344 7.257812 L 0.0507812 18.5 L 0.0507812 6.972656 L 9.375 0.410156 Z M 16.027344 7.257812 " fill-opacity="1" fill-rule="nonzero"/></g></g></g></g></g><g transform="matrix(1, 0, 0, 1, 126, 36)"><g clip-path="url(#9d9af70829)"><g fill="#f59e0b" fill-opacity="1"><g transform="translate(0.0184194, 7.258549)"><g><path d="M 0.921875 -4.453125 C 0.804688 -4.453125 0.710938 -4.488281 0.640625 -4.5625 C 0.566406 -4.632812 0.53125 -4.726562 0.53125 -4.84375 C 0.53125 -4.957031 0.566406 -5.050781 0.640625 -5.125 C 0.710938 -5.195312 0.804688 -5.234375 0.921875 -5.234375 C 1.046875 -5.234375 1.144531 -5.195312 1.21875 -5.125 C 1.289062 -5.050781 1.328125 -4.957031 1.328125 -4.84375 C 1.328125 -4.726562 1.289062 -4.632812 1.21875 -4.5625 C 1.144531 -4.488281 1.046875 -4.453125 0.921875 -4.453125 Z M 0.65625 0 L 0.65625 -3.734375 L 1.203125 -3.734375 L 1.203125 0 Z M 0.65625 0 "/></g></g></g></g></g></svg>