<svg xmlns="http://www.w3.org/2000/svg" xmlns:xlink="http://www.w3.org/1999/xlink" width="180" zoomAndPan="magnify" viewBox="0 0 135 56.999997" height="76" preserveAspectRatio="xMidYMid meet" version="1.0"><defs><g/><clipPath id="19913245b8"><path d="M 74.675781 17.140625 L 133.925781 17.140625 L 133.925781 57 L 74.675781 57 Z M 74.675781 17.140625 " clip-rule="nonzero"/></clipPath><clipPath id="321deea3c9"><path d="M 5 5 L 59.667969 5 L 59.667969 40 L 5 40 Z M 5 5 " clip-rule="nonzero"/></clipPath><clipPath id="b0a403ff5e"><path d="M 5 10 L 57 10 L 57 40 L 5 40 Z M 5 10 " clip-rule="nonzero"/></clipPath><clipPath id="0110dab03e"><path d="M 4 10 L 57 10 L 57 40 L 4 40 Z M 4 10 " clip-rule="nonzero"/></clipPath><clipPath id="226ef0c62d"><path d="M 6 8 L 59 8 L 59 40 L 6 40 Z M 6 8 " clip-rule="nonzero"/></clipPath><clipPath id="44d188b6cd"><path d="M 8 5 L 59.667969 5 L 59.667969 40 L 8 40 Z M 8 5 " clip-rule="nonzero"/></clipPath><clipPath id="a6e6f643cd"><path d="M 16 15 L 17 15 L 17 40 L 16 40 Z M 16 15 " clip-rule="nonzero"/></clipPath><clipPath id="483b3e5a87"><path d="M 25 15 L 26 15 L 26 40 L 25 40 Z M 25 15 " clip-rule="nonzero"/></clipPath><clipPath id="60258ba6e1"><path d="M 34 15 L 35 15 L 35 40 L 34 40 Z M 34 15 " clip-rule="nonzero"/></clipPath><clipPath id="daa8135af5"><path d="M 42 15 L 43 15 L 43 40 L 42 40 Z M 42 15 " clip-rule="nonzero"/></clipPath><clipPath id="d75ab655ba"><path d="M 51 15 L 52 15 L 52 40 L 51 40 Z M 51 15 " clip-rule="nonzero"/></clipPath><clipPath id="698bfd8dbe"><path d="M 1 0.140625 L 18 0.140625 L 18 17 L 1 17 Z M 1 0.140625 " clip-rule="nonzero"/></clipPath><clipPath id="86d44c9d74"><rect x="0" width="60" y="0" height="40"/></clipPath><clipPath id="bad3c1f39c"><path d="M 129.300781 19.988281 L 134.503906 19.988281 L 134.503906 26.617188 L 129.300781 26.617188 Z M 129.300781 19.988281 " clip-rule="nonzero"/></clipPath><clipPath id="5c01349eb3"><path d="M 130.441406 19.988281 L 133.363281 19.988281 C 133.992188 19.988281 134.503906 20.5 134.503906 21.128906 L 134.503906 25.472656 C 134.503906 26.101562 133.992188 26.613281 133.363281 26.613281 L 130.441406 26.613281 C 129.808594 26.613281 129.300781 26.101562 129.300781 25.472656 L 129.300781 21.128906 C 129.300781 20.5 129.808594 19.988281 130.441406 19.988281 Z M 130.441406 19.988281 " clip-rule="nonzero"/></clipPath><clipPath id="511a7341ba"><path d="M 0.300781 0.988281 L 5.503906 0.988281 L 5.503906 7.617188 L 0.300781 7.617188 Z M 0.300781 0.988281 " clip-rule="nonzero"/></clipPath><clipPath id="a6305d89db"><path d="M 1.441406 0.988281 L 4.363281 0.988281 C 4.992188 0.988281 5.503906 1.5 5.503906 2.128906 L 5.503906 6.472656 C 5.503906 7.101562 4.992188 7.613281 4.363281 7.613281 L 1.441406 7.613281 C 0.808594 7.613281 0.300781 7.101562 0.300781 6.472656 L 0.300781 2.128906 C 0.300781 1.5 0.808594 0.988281 1.441406 0.988281 Z M 1.441406 0.988281 " clip-rule="nonzero"/></clipPath><clipPath id="a67fa8bdff"><rect x="0" width="6" y="0" height="8"/></clipPath><clipPath id="895e35087e"><path d="M 125.273438 15.132812 L 130.476562 15.132812 L 130.476562 21.757812 L 125.273438 21.757812 Z M 125.273438 15.132812 " clip-rule="nonzero"/></clipPath><clipPath id="afa1e3ecfd"><path d="M 126.414062 15.132812 L 129.335938 15.132812 C 129.964844 15.132812 130.476562 15.644531 130.476562 16.273438 L 130.476562 20.617188 C 130.476562 21.246094 129.964844 21.757812 129.335938 21.757812 L 126.414062 21.757812 C 125.785156 21.757812 125.273438 21.246094 125.273438 20.617188 L 125.273438 16.273438 C 125.273438 15.644531 125.785156 15.132812 126.414062 15.132812 Z M 126.414062 15.132812 " clip-rule="nonzero"/></clipPath><clipPath id="3a4829e154"><path d="M 0.273438 0.132812 L 5.476562 0.132812 L 5.476562 6.757812 L 0.273438 6.757812 Z M 0.273438 0.132812 " clip-rule="nonzero"/></clipPath><clipPath id="af871320d3"><path d="M 1.414062 0.132812 L 4.335938 0.132812 C 4.964844 0.132812 5.476562 0.644531 5.476562 1.273438 L 5.476562 5.617188 C 5.476562 6.246094 4.964844 6.757812 4.335938 6.757812 L 1.414062 6.757812 C 0.785156 6.757812 0.273438 6.246094 0.273438 5.617188 L 0.273438 1.273438 C 0.273438 0.644531 0.785156 0.132812 1.414062 0.132812 Z M 1.414062 0.132812 " clip-rule="nonzero"/></clipPath><clipPath id="9043be02f7"><rect x="0" width="6" y="0" height="7"/></clipPath><clipPath id="18c9c48088"><path d="M 130.464844 9.492188 L 133.328125 9.492188 L 133.328125 12.355469 L 130.464844 12.355469 Z M 130.464844 9.492188 " clip-rule="nonzero"/></clipPath><clipPath id="9f5cc6d833"><path d="M 131.617188 9.503906 L 132.1875 9.503906 C 132.816406 9.503906 133.328125 10.015625 133.328125 10.644531 L 133.328125 11.214844 C 133.328125 11.84375 132.816406 12.355469 132.1875 12.355469 L 131.617188 12.355469 C 130.988281 12.355469 130.476562 11.84375 130.476562 11.214844 L 130.476562 10.644531 C 130.476562 10.015625 130.988281 9.503906 131.617188 9.503906 Z M 131.617188 9.503906 " clip-rule="nonzero"/></clipPath><clipPath id="d56468d309"><path d="M 0.464844 0.492188 L 3.328125 0.492188 L 3.328125 3.355469 L 0.464844 3.355469 Z M 0.464844 0.492188 " clip-rule="nonzero"/></clipPath><clipPath id="c17df62805"><path d="M 1.617188 0.503906 L 2.1875 0.503906 C 2.816406 0.503906 3.328125 1.015625 3.328125 1.644531 L 3.328125 2.214844 C 3.328125 2.84375 2.816406 3.355469 2.1875 3.355469 L 1.617188 3.355469 C 0.988281 3.355469 0.476562 2.84375 0.476562 2.214844 L 0.476562 1.644531 C 0.476562 1.015625 0.988281 0.503906 1.617188 0.503906 Z M 1.617188 0.503906 " clip-rule="nonzero"/></clipPath><clipPath id="832898adc3"><rect x="0" width="4" y="0" height="4"/></clipPath><clipPath id="a0a1722bb1"><path d="M 94 34 L 118.6875 34 L 118.6875 52.597656 L 94 52.597656 Z M 94 34 " clip-rule="nonzero"/></clipPath><clipPath id="36cb04a5be"><rect x="0" width="3" y="0" height="10"/></clipPath></defs><rect x="-13.5" width="162" fill="#ffffff" y="-5.7" height="68.399996" fill-opacity="1"/><rect x="-13.5" width="162" fill="#6366f1" y="-5.7" height="68.399996" fill-opacity="1"/><g clip-path="url(#19913245b8)"><g transform="matrix(1, 0, 0, 1, 74, 17)"><g clip-path="url(#86d44c9d74)"><g clip-path="url(#321deea3c9)"><path fill="#6366f1" d="M 57.726562 96.414062 C 58.308594 96.113281 58.773438 95.683594 59.117188 95.125 C 59.460938 94.566406 59.632812 93.957031 59.632812 93.300781 L 59.632812 9.46875 C 59.632812 9.003906 59.542969 8.558594 59.367188 8.128906 C 59.1875 7.699219 58.933594 7.320312 58.605469 6.992188 C 58.277344 6.664062 57.898438 6.410156 57.472656 6.234375 C 57.042969 6.058594 56.597656 5.96875 56.132812 5.96875 L 12.039062 5.96875 C 11.667969 5.96875 11.300781 6.027344 10.945312 6.144531 C 10.589844 6.261719 10.261719 6.433594 9.960938 6.65625 C 9.660156 6.878906 9.402344 7.140625 9.1875 7.445312 C 8.972656 7.753906 8.808594 8.085938 8.699219 8.441406 C 8.246094 8.671875 7.863281 8.988281 7.546875 9.386719 C 7.234375 9.78125 7.015625 10.226562 6.890625 10.71875 C 6.355469 11.035156 5.933594 11.460938 5.621094 12 C 5.3125 12.539062 5.160156 13.121094 5.160156 13.742188 L 5.160156 97.574219 C 5.160156 98.039062 5.246094 98.488281 5.425781 98.914062 C 5.601562 99.34375 5.855469 99.722656 6.183594 100.050781 C 6.511719 100.378906 6.890625 100.632812 7.320312 100.808594 C 7.746094 100.988281 8.195312 101.074219 8.65625 101.074219 L 52.746094 101.074219 C 53.136719 101.074219 53.515625 101.011719 53.886719 100.882812 C 54.257812 100.757812 54.597656 100.570312 54.902344 100.328125 C 55.210938 100.089844 55.472656 99.800781 55.683594 99.472656 C 55.898438 99.144531 56.050781 98.789062 56.144531 98.410156 C 56.929688 97.949219 57.457031 97.285156 57.726562 96.414062 Z M 57.726562 96.414062 " fill-opacity="1" fill-rule="nonzero"/></g><g clip-path="url(#b0a403ff5e)"><path fill="#8789ec" d="M 5.167969 97.863281 L 5.167969 14.035156 C 5.167969 13.570312 5.257812 13.125 5.433594 12.695312 C 5.609375 12.265625 5.863281 11.890625 6.191406 11.5625 C 6.519531 11.234375 6.898438 10.980469 7.324219 10.800781 C 7.753906 10.625 8.199219 10.535156 8.664062 10.535156 L 52.753906 10.535156 C 53.21875 10.535156 53.664062 10.625 54.09375 10.800781 C 54.523438 10.980469 54.902344 11.230469 55.230469 11.558594 C 55.558594 11.886719 55.808594 12.265625 55.988281 12.695312 C 56.164062 13.125 56.253906 13.570312 56.253906 14.035156 L 56.253906 97.863281 C 56.253906 98.03125 56.242188 98.199219 56.21875 98.363281 C 56.203125 98.476562 56.179688 98.59375 56.15625 98.695312 C 56.0625 99.078125 55.910156 99.433594 55.695312 99.761719 C 55.484375 100.089844 55.222656 100.375 54.914062 100.617188 C 54.605469 100.859375 54.265625 101.042969 53.898438 101.171875 C 53.527344 101.296875 53.144531 101.363281 52.753906 101.363281 L 8.664062 101.363281 C 8.199219 101.363281 7.753906 101.273438 7.324219 101.09375 C 6.898438 100.917969 6.519531 100.664062 6.191406 100.335938 C 5.863281 100.007812 5.609375 99.628906 5.433594 99.203125 C 5.257812 98.773438 5.167969 98.328125 5.167969 97.863281 Z M 13.550781 16.539062 C 13.546875 16.183594 13.480469 15.839844 13.34375 15.511719 C 13.207031 15.183594 13.011719 14.890625 12.761719 14.636719 C 12.511719 14.386719 12.222656 14.1875 11.894531 14.050781 C 11.566406 13.910156 11.226562 13.835938 10.867188 13.832031 C 10.511719 13.824219 10.167969 13.886719 9.835938 14.015625 C 9.503906 14.144531 9.210938 14.332031 8.949219 14.574219 C 8.691406 14.820312 8.488281 15.105469 8.339844 15.429688 C 8.195312 15.753906 8.113281 16.09375 8.097656 16.449219 C 8.097656 16.476562 8.097656 16.507812 8.097656 16.539062 C 8.097656 16.898438 8.167969 17.246094 8.304688 17.582031 C 8.445312 17.914062 8.640625 18.210938 8.898438 18.464844 C 9.152344 18.722656 9.449219 18.917969 9.78125 19.058594 C 10.117188 19.195312 10.464844 19.265625 10.824219 19.265625 C 11.1875 19.265625 11.535156 19.195312 11.871094 19.058594 C 12.203125 18.917969 12.5 18.722656 12.753906 18.464844 C 13.011719 18.210938 13.207031 17.914062 13.34375 17.582031 C 13.484375 17.246094 13.554688 16.898438 13.554688 16.539062 Z M 13.550781 16.539062 " fill-opacity="1" fill-rule="nonzero"/></g><g clip-path="url(#0110dab03e)"><path fill="#8789ec" d="M 56.542969 97.863281 L 56.542969 14.035156 C 56.542969 13.53125 56.445312 13.050781 56.253906 12.585938 C 56.0625 12.125 55.789062 11.714844 55.433594 11.359375 C 55.078125 11.003906 54.667969 10.730469 54.207031 10.539062 C 53.742188 10.347656 53.261719 10.25 52.757812 10.25 L 8.664062 10.25 C 8.160156 10.25 7.679688 10.347656 7.214844 10.539062 C 6.75 10.730469 6.34375 11.003906 5.988281 11.359375 C 5.632812 11.714844 5.359375 12.121094 5.167969 12.585938 C 4.976562 13.050781 4.878906 13.53125 4.878906 14.035156 L 4.878906 97.863281 C 4.878906 98.363281 4.976562 98.847656 5.167969 99.3125 C 5.359375 99.773438 5.632812 100.183594 5.988281 100.539062 C 6.34375 100.894531 6.75 101.167969 7.214844 101.359375 C 7.679688 101.550781 8.160156 101.648438 8.664062 101.648438 L 52.753906 101.648438 C 53.257812 101.648438 53.738281 101.550781 54.203125 101.359375 C 54.667969 101.167969 55.078125 100.894531 55.429688 100.539062 C 55.785156 100.183594 56.058594 99.773438 56.253906 99.3125 C 56.445312 98.847656 56.542969 98.363281 56.542969 97.863281 Z M 5.449219 14.035156 C 5.449219 13.609375 5.53125 13.199219 5.695312 12.804688 C 5.855469 12.410156 6.089844 12.0625 6.390625 11.761719 C 6.691406 11.460938 7.039062 11.226562 7.433594 11.066406 C 7.828125 10.902344 8.238281 10.820312 8.664062 10.820312 L 52.753906 10.820312 C 53.179688 10.820312 53.589844 10.902344 53.984375 11.0625 C 54.378906 11.226562 54.726562 11.460938 55.027344 11.761719 C 55.332031 12.0625 55.5625 12.410156 55.726562 12.804688 C 55.890625 13.199219 55.972656 13.609375 55.972656 14.035156 L 55.972656 97.863281 C 55.972656 98.289062 55.890625 98.699219 55.726562 99.09375 C 55.5625 99.488281 55.332031 99.832031 55.03125 100.136719 C 54.730469 100.4375 54.382812 100.667969 53.988281 100.832031 C 53.59375 100.996094 53.183594 101.078125 52.757812 101.078125 L 8.664062 101.078125 C 8.238281 101.078125 7.828125 100.996094 7.433594 100.832031 C 7.039062 100.667969 6.691406 100.4375 6.390625 100.136719 C 6.089844 99.832031 5.855469 99.488281 5.695312 99.09375 C 5.53125 98.699219 5.449219 98.289062 5.449219 97.863281 Z M 5.449219 14.035156 " fill-opacity="1" fill-rule="nonzero"/></g><g clip-path="url(#226ef0c62d)"><path fill="#8789ec" d="M 58.171875 95.675781 L 58.171875 11.847656 C 58.171875 11.34375 58.074219 10.863281 57.882812 10.398438 C 57.691406 9.933594 57.417969 9.527344 57.0625 9.171875 C 56.707031 8.816406 56.300781 8.542969 55.835938 8.351562 C 55.371094 8.160156 54.890625 8.0625 54.386719 8.0625 L 10.292969 8.0625 C 9.6875 8.058594 9.113281 8.199219 8.574219 8.476562 C 8.085938 8.726562 7.667969 9.066406 7.328125 9.496094 C 6.988281 9.925781 6.75 10.410156 6.621094 10.941406 C 6.601562 11.019531 6.613281 11.089844 6.652344 11.15625 C 6.695312 11.226562 6.753906 11.269531 6.828125 11.285156 C 6.90625 11.304688 6.976562 11.292969 7.046875 11.253906 C 7.113281 11.210938 7.15625 11.152344 7.175781 11.078125 C 7.261719 10.726562 7.402344 10.402344 7.59375 10.101562 C 7.789062 9.800781 8.03125 9.539062 8.3125 9.316406 C 8.59375 9.09375 8.90625 8.925781 9.246094 8.808594 C 9.585938 8.691406 9.933594 8.632812 10.292969 8.632812 L 54.386719 8.632812 C 54.8125 8.632812 55.222656 8.714844 55.617188 8.875 C 56.011719 9.039062 56.359375 9.273438 56.660156 9.574219 C 56.960938 9.875 57.195312 10.222656 57.355469 10.617188 C 57.519531 11.007812 57.601562 11.417969 57.601562 11.847656 L 57.601562 95.675781 C 57.605469 96.246094 57.460938 96.78125 57.175781 97.277344 C 56.890625 97.773438 56.503906 98.164062 56.007812 98.449219 C 55.941406 98.492188 55.894531 98.546875 55.875 98.625 C 55.855469 98.699219 55.867188 98.773438 55.90625 98.839844 C 55.945312 98.910156 56.003906 98.953125 56.082031 98.972656 C 56.15625 98.992188 56.226562 98.984375 56.296875 98.941406 C 56.878906 98.605469 57.335938 98.144531 57.671875 97.558594 C 58.003906 96.976562 58.171875 96.347656 58.171875 95.675781 Z M 58.171875 95.675781 " fill-opacity="1" fill-rule="nonzero"/></g><g clip-path="url(#44d188b6cd)"><path fill="#8789ec" d="M 59.925781 93.582031 L 59.925781 9.753906 C 59.925781 9.253906 59.828125 8.769531 59.636719 8.308594 C 59.445312 7.84375 59.171875 7.433594 58.816406 7.078125 C 58.460938 6.726562 58.054688 6.453125 57.589844 6.257812 C 57.125 6.066406 56.644531 5.96875 56.140625 5.96875 L 12.050781 5.96875 C 11.644531 5.96875 11.25 6.03125 10.863281 6.15625 C 10.476562 6.28125 10.121094 6.464844 9.796875 6.707031 C 9.46875 6.949219 9.191406 7.234375 8.957031 7.566406 C 8.722656 7.898438 8.546875 8.257812 8.429688 8.644531 C 8.410156 8.71875 8.417969 8.792969 8.457031 8.859375 C 8.492188 8.925781 8.550781 8.972656 8.621094 8.992188 C 8.695312 9.015625 8.769531 9.011719 8.835938 8.976562 C 8.90625 8.9375 8.953125 8.886719 8.976562 8.8125 C 9.074219 8.484375 9.226562 8.175781 9.421875 7.894531 C 9.621094 7.613281 9.859375 7.371094 10.136719 7.164062 C 10.414062 6.960938 10.714844 6.804688 11.042969 6.699219 C 11.371094 6.589844 11.707031 6.539062 12.050781 6.539062 L 56.140625 6.539062 C 56.570312 6.539062 56.980469 6.621094 57.371094 6.785156 C 57.765625 6.949219 58.113281 7.179688 58.414062 7.480469 C 58.714844 7.785156 58.949219 8.132812 59.113281 8.523438 C 59.273438 8.917969 59.355469 9.328125 59.355469 9.753906 L 59.355469 93.582031 C 59.359375 94.1875 59.203125 94.746094 58.886719 95.261719 C 58.570312 95.777344 58.144531 96.171875 57.605469 96.445312 C 57.535156 96.480469 57.488281 96.539062 57.464844 96.613281 C 57.4375 96.6875 57.445312 96.761719 57.480469 96.832031 C 57.515625 96.902344 57.570312 96.949219 57.648438 96.972656 C 57.722656 96.996094 57.792969 96.992188 57.863281 96.953125 C 58.5 96.632812 59 96.167969 59.371094 95.558594 C 59.742188 94.953125 59.929688 94.292969 59.925781 93.582031 Z M 59.925781 93.582031 " fill-opacity="1" fill-rule="nonzero"/></g><g clip-path="url(#a6e6f643cd)"><path fill="#6366f1" d="M 16.773438 96.699219 L 16.773438 15.667969 C 16.773438 15.632812 16.753906 15.613281 16.71875 15.613281 C 16.679688 15.613281 16.660156 15.628906 16.660156 15.667969 L 16.660156 96.699219 C 16.660156 96.738281 16.679688 96.757812 16.71875 96.757812 C 16.753906 96.757812 16.773438 96.738281 16.773438 96.699219 Z M 16.773438 96.699219 " fill-opacity="1" fill-rule="nonzero"/></g><g clip-path="url(#483b3e5a87)"><path fill="#6366f1" d="M 25.460938 96.699219 L 25.460938 15.667969 C 25.460938 15.628906 25.441406 15.613281 25.40625 15.613281 C 25.367188 15.613281 25.347656 15.632812 25.347656 15.667969 L 25.347656 96.699219 C 25.347656 96.738281 25.367188 96.757812 25.40625 96.757812 C 25.441406 96.757812 25.460938 96.738281 25.460938 96.699219 Z M 25.460938 96.699219 " fill-opacity="1" fill-rule="nonzero"/></g><g clip-path="url(#60258ba6e1)"><path fill="#6366f1" d="M 34.148438 96.699219 L 34.148438 15.667969 C 34.148438 15.632812 34.128906 15.613281 34.09375 15.613281 C 34.054688 15.613281 34.035156 15.628906 34.035156 15.667969 L 34.035156 96.699219 C 34.035156 96.738281 34.054688 96.757812 34.09375 96.757812 C 34.128906 96.757812 34.148438 96.738281 34.148438 96.699219 Z M 34.148438 96.699219 " fill-opacity="1" fill-rule="nonzero"/></g><g clip-path="url(#daa8135af5)"><path fill="#6366f1" d="M 42.835938 96.699219 L 42.835938 15.667969 C 42.835938 15.628906 42.816406 15.613281 42.78125 15.613281 C 42.742188 15.613281 42.722656 15.628906 42.722656 15.667969 L 42.722656 96.699219 C 42.722656 96.738281 42.742188 96.757812 42.78125 96.757812 C 42.816406 96.757812 42.835938 96.738281 42.835938 96.699219 Z M 42.835938 96.699219 " fill-opacity="1" fill-rule="nonzero"/></g><g clip-path="url(#d75ab655ba)"><path fill="#6366f1" d="M 51.53125 96.699219 L 51.53125 15.667969 C 51.53125 15.632812 51.511719 15.613281 51.472656 15.613281 C 51.433594 15.613281 51.417969 15.628906 51.417969 15.667969 L 51.417969 96.699219 C 51.417969 96.738281 51.433594 96.757812 51.472656 96.757812 C 51.511719 96.757812 51.53125 96.738281 51.53125 96.699219 Z M 51.53125 96.699219 " fill-opacity="1" fill-rule="nonzero"/></g><path fill="#8789ec" d="M 13.835938 16.539062 C 13.835938 16.136719 13.757812 15.753906 13.605469 15.386719 C 13.453125 15.015625 13.234375 14.691406 12.953125 14.40625 C 12.667969 14.125 12.34375 13.90625 11.976562 13.753906 C 11.605469 13.601562 11.222656 13.527344 10.824219 13.527344 C 10.421875 13.527344 10.039062 13.601562 9.671875 13.753906 C 9.300781 13.90625 8.976562 14.125 8.691406 14.40625 C 8.410156 14.691406 8.191406 15.015625 8.039062 15.386719 C 7.886719 15.753906 7.8125 16.136719 7.8125 16.539062 C 7.8125 16.9375 7.886719 17.320312 8.039062 17.691406 C 8.191406 18.058594 8.410156 18.386719 8.691406 18.667969 C 8.976562 18.949219 9.300781 19.167969 9.671875 19.320312 C 10.039062 19.472656 10.421875 19.550781 10.824219 19.550781 C 11.222656 19.550781 11.605469 19.472656 11.972656 19.320312 C 12.34375 19.167969 12.667969 18.949219 12.953125 18.667969 C 13.234375 18.382812 13.453125 18.058594 13.605469 17.691406 C 13.757812 17.320312 13.832031 16.9375 13.835938 16.539062 Z M 8.378906 16.539062 C 8.378906 16.214844 8.441406 15.902344 8.566406 15.601562 C 8.691406 15.304688 8.867188 15.039062 9.09375 14.8125 C 9.324219 14.582031 9.589844 14.40625 9.886719 14.28125 C 10.1875 14.15625 10.5 14.09375 10.824219 14.09375 C 11.144531 14.09375 11.457031 14.15625 11.757812 14.28125 C 12.054688 14.40625 12.320312 14.582031 12.550781 14.8125 C 12.777344 15.039062 12.953125 15.304688 13.078125 15.601562 C 13.203125 15.902344 13.265625 16.214844 13.265625 16.539062 C 13.265625 16.863281 13.203125 17.171875 13.078125 17.472656 C 12.953125 17.773438 12.777344 18.035156 12.550781 18.265625 C 12.320312 18.492188 12.054688 18.671875 11.757812 18.792969 C 11.457031 18.917969 11.144531 18.980469 10.824219 18.980469 C 10.5 18.980469 10.1875 18.917969 9.886719 18.792969 C 9.589844 18.667969 9.324219 18.492188 9.097656 18.265625 C 8.867188 18.035156 8.691406 17.769531 8.566406 17.472656 C 8.441406 17.171875 8.378906 16.863281 8.378906 16.539062 Z M 8.378906 16.539062 " fill-opacity="1" fill-rule="nonzero"/><g clip-path="url(#698bfd8dbe)"><path fill="#8789ec" d="M 17.195312 6.253906 C 17.195312 6.226562 17.191406 6.199219 17.179688 6.171875 C 17.144531 6.058594 17.113281 5.957031 17.082031 5.871094 C 16.972656 5.5625 16.847656 5.257812 16.703125 4.960938 C 16.558594 4.667969 16.394531 4.382812 16.21875 4.105469 C 16.039062 3.828125 15.84375 3.566406 15.632812 3.3125 C 15.421875 3.058594 15.199219 2.820312 14.957031 2.59375 C 14.71875 2.371094 14.46875 2.160156 14.203125 1.964844 C 13.9375 1.769531 13.664062 1.589844 13.378906 1.425781 C 13.09375 1.261719 12.796875 1.117188 12.496094 0.992188 C 12.191406 0.863281 11.882812 0.753906 11.566406 0.664062 C 11.25 0.574219 10.929688 0.503906 10.605469 0.453125 C 10.28125 0.398438 9.953125 0.367188 9.625 0.355469 C 9.296875 0.339844 8.96875 0.347656 8.640625 0.375 C 8.3125 0.402344 7.988281 0.445312 7.664062 0.511719 C 7.34375 0.578125 7.027344 0.664062 6.714844 0.765625 C 6.402344 0.871094 6.097656 0.992188 5.796875 1.132812 C 5.5 1.269531 5.214844 1.429688 4.933594 1.601562 C 4.65625 1.777344 4.386719 1.96875 4.132812 2.171875 C 3.875 2.378906 3.632812 2.601562 3.402344 2.835938 C 3.175781 3.070312 2.960938 3.320312 2.761719 3.582031 C 2.558594 3.84375 2.375 4.113281 2.210938 4.398438 C 2.042969 4.679688 1.894531 4.972656 1.761719 5.273438 C 1.628906 5.574219 1.515625 5.882812 1.417969 6.199219 C 1.324219 6.511719 1.25 6.832031 1.191406 7.15625 C 1.132812 7.480469 1.097656 7.804688 1.078125 8.132812 C 1.058594 8.464844 1.0625 8.792969 1.082031 9.121094 C 1.105469 9.449219 1.144531 9.773438 1.207031 10.097656 C 1.265625 10.417969 1.34375 10.738281 1.445312 11.050781 C 1.542969 11.367188 1.660156 11.671875 1.792969 11.972656 C 1.929688 12.273438 2.082031 12.5625 2.25 12.84375 C 2.421875 13.125 2.609375 13.394531 2.808594 13.65625 C 3.011719 13.914062 3.230469 14.160156 3.460938 14.394531 C 3.691406 14.628906 3.9375 14.84375 4.195312 15.050781 C 4.453125 15.253906 4.722656 15.441406 5.003906 15.613281 L 5.015625 15.621094 C 5.953125 16.195312 6.964844 16.5625 8.054688 16.730469 C 8.46875 16.792969 8.886719 16.824219 9.308594 16.824219 C 10.796875 16.824219 12.1875 16.449219 13.472656 15.695312 C 13.539062 15.65625 13.582031 15.597656 13.601562 15.519531 C 13.621094 15.445312 13.613281 15.371094 13.570312 15.304688 C 13.53125 15.238281 13.472656 15.191406 13.398438 15.171875 C 13.320312 15.152344 13.25 15.164062 13.183594 15.203125 C 11.984375 15.90625 10.695312 16.253906 9.308594 16.253906 C 8.917969 16.253906 8.53125 16.226562 8.144531 16.167969 C 7.132812 16.011719 6.191406 15.667969 5.316406 15.132812 L 5.308594 15.128906 C 5.046875 14.96875 4.796875 14.792969 4.554688 14.601562 C 4.316406 14.414062 4.085938 14.210938 3.871094 13.992188 C 3.65625 13.777344 3.453125 13.546875 3.265625 13.304688 C 3.078125 13.0625 2.902344 12.8125 2.746094 12.550781 C 2.589844 12.289062 2.445312 12.019531 2.320312 11.738281 C 2.195312 11.460938 2.085938 11.175781 1.996094 10.882812 C 1.902344 10.589844 1.828125 10.292969 1.773438 9.992188 C 1.71875 9.691406 1.679688 9.390625 1.660156 9.082031 C 1.640625 8.777344 1.636719 8.472656 1.65625 8.167969 C 1.671875 7.859375 1.707031 7.558594 1.761719 7.257812 C 1.8125 6.953125 1.882812 6.65625 1.972656 6.363281 C 2.0625 6.070312 2.167969 5.785156 2.289062 5.503906 C 2.414062 5.226562 2.554688 4.953125 2.707031 4.691406 C 2.863281 4.425781 3.035156 4.171875 3.222656 3.929688 C 3.40625 3.6875 3.605469 3.457031 3.820312 3.238281 C 4.035156 3.015625 4.261719 2.8125 4.496094 2.621094 C 4.734375 2.425781 4.984375 2.25 5.246094 2.089844 C 5.503906 1.925781 5.773438 1.78125 6.050781 1.648438 C 6.328125 1.519531 6.609375 1.40625 6.902344 1.308594 C 7.191406 1.214844 7.484375 1.136719 7.785156 1.074219 C 8.085938 1.011719 8.386719 0.96875 8.695312 0.945312 C 9 0.921875 9.304688 0.914062 9.609375 0.925781 C 9.914062 0.9375 10.21875 0.96875 10.523438 1.015625 C 10.824219 1.066406 11.121094 1.132812 11.417969 1.214844 C 11.710938 1.300781 12 1.402344 12.28125 1.519531 C 12.5625 1.636719 12.835938 1.773438 13.105469 1.925781 C 13.371094 2.078125 13.625 2.242188 13.871094 2.425781 C 14.117188 2.605469 14.351562 2.804688 14.574219 3.011719 C 14.796875 3.222656 15.007812 3.445312 15.203125 3.679688 C 15.398438 3.917969 15.578125 4.164062 15.746094 4.417969 C 15.910156 4.675781 16.0625 4.941406 16.195312 5.214844 C 16.332031 5.492188 16.449219 5.773438 16.550781 6.0625 C 16.582031 6.15625 16.613281 6.246094 16.640625 6.339844 C 16.6875 6.496094 16.792969 6.5625 16.957031 6.539062 C 17.117188 6.511719 17.199219 6.417969 17.199219 6.257812 Z M 17.195312 6.253906 " fill-opacity="1" fill-rule="nonzero"/></g></g></g></g><g clip-path="url(#bad3c1f39c)"><g clip-path="url(#5c01349eb3)"><g transform="matrix(1, 0, 0, 1, 129, 19)"><g clip-path="url(#a67fa8bdff)"><g clip-path="url(#511a7341ba)"><g clip-path="url(#a6305d89db)"><path fill="#8789ec" d="M 0.300781 0.988281 L 5.503906 0.988281 L 5.503906 7.617188 L 0.300781 7.617188 Z M 0.300781 0.988281 " fill-opacity="1" fill-rule="nonzero"/></g></g></g></g></g></g><g clip-path="url(#895e35087e)"><g clip-path="url(#afa1e3ecfd)"><g transform="matrix(1, 0, 0, 1, 125, 15)"><g clip-path="url(#9043be02f7)"><g clip-path="url(#3a4829e154)"><g clip-path="url(#af871320d3)"><path fill="#8789ec" d="M 0.273438 0.132812 L 5.476562 0.132812 L 5.476562 6.757812 L 0.273438 6.757812 Z M 0.273438 0.132812 " fill-opacity="1" fill-rule="nonzero"/></g></g></g></g></g></g><g clip-path="url(#18c9c48088)"><g clip-path="url(#9f5cc6d833)"><g transform="matrix(1, 0, 0, 1, 130, 9)"><g clip-path="url(#832898adc3)"><g clip-path="url(#d56468d309)"><g clip-path="url(#c17df62805)"><path fill="#8789ec" d="M 0.476562 0.503906 L 3.328125 0.503906 L 3.328125 3.355469 L 0.476562 3.355469 Z M 0.476562 0.503906 " fill-opacity="1" fill-rule="nonzero"/></g></g></g></g></g></g><g clip-path="url(#a0a1722bb1)"><path fill="#ececec" d="M 117.699219 34.742188 L 117.695312 34.742188 C 116.804688 33.847656 115.355469 33.847656 114.460938 34.742188 L 102.03125 47.171875 L 98.109375 43.253906 C 97.21875 42.359375 95.769531 42.359375 94.875 43.253906 C 93.980469 44.148438 93.980469 45.597656 94.875 46.492188 L 100.425781 52.039062 C 101.320312 52.933594 102.769531 52.933594 103.664062 52.039062 L 117.699219 37.976562 C 118.59375 37.082031 118.589844 35.636719 117.699219 34.742188 " fill-opacity="1" fill-rule="nonzero"/></g><g transform="matrix(1, 0, 0, 1, 126, 36)"><g clip-path="url(#36cb04a5be)"><g fill="#8789ec" fill-opacity="1"><g transform="translate(0.0184194, 7.258549)"><g><path d="M 0.921875 -4.453125 C 0.804688 -4.453125 0.710938 -4.488281 0.640625 -4.5625 C 0.566406 -4.632812 0.53125 -4.726562 0.53125 -4.84375 C 0.53125 -4.957031 0.566406 -5.050781 0.640625 -5.125 C 0.710938 -5.195312 0.804688 -5.234375 0.921875 -5.234375 C 1.046875 -5.234375 1.144531 -5.195312 1.21875 -5.125 C 1.289062 -5.050781 1.328125 -4.957031 1.328125 -4.84375 C 1.328125 -4.726562 1.289062 -4.632812 1.21875 -4.5625 C 1.144531 -4.488281 1.046875 -4.453125 0.921875 -4.453125 Z M 0.65625 0 L 0.65625 -3.734375 L 1.203125 -3.734375 L 1.203125 0 Z M 0.65625 0 "/></g></g></g></g></g></svg>